<svg width="1200" height="800" viewBox="0 0 1200 800" fill="none" xmlns="http://www.w3.org/2000/svg">
  <defs>
    <linearGradient id="bg" x1="0" y1="0" x2="1" y2="1">
      <stop offset="0%" stop-color="#2d0263" />
      <stop offset="100%" stop-color="#5b2b99" />
    </linearGradient>
    <linearGradient id="glow" x1="0" y1="0" x2="1" y2="1">
      <stop offset="0%" stop-color="#76e7ff" />
      <stop offset="100%" stop-color="#d05bff" />
    </linearGradient>
  </defs>
  <rect width="1200" height="800" rx="40" fill="url(#bg)" />
  <circle cx="300" cy="250" r="110" fill="rgba(118,231,255,0.15)" />
  <circle cx="520" cy="340" r="90" fill="rgba(208,91,255,0.2)" />
  <circle cx="760" cy="180" r="70" fill="rgba(118,231,255,0.25)" />
  <path d="M180 620 C420 520 760 720 1020 560" stroke="url(#glow)" stroke-width="24" stroke-linecap="round" fill="none" opacity="0.7"/>
  <path d="M220 520 C470 410 710 610 960 470" stroke="rgba(255,255,255,0.4)" stroke-width="16" stroke-linecap="round" fill="none" opacity="0.8"/>
  <rect x="240" y="200" width="720" height="300" rx="30" fill="rgba(255,255,255,0.08)" />
  <rect x="280" y="260" width="640" height="180" rx="20" fill="rgba(255,255,255,0.12)" />
  <rect x="320" y="300" width="120" height="16" rx="8" fill="#ffffff" opacity="0.9" />
  <rect x="320" y="336" width="460" height="16" rx="8" fill="#ffffff" opacity="0.6" />
  <rect x="320" y="372" width="380" height="16" rx="8" fill="#ffffff" opacity="0.6" />
  <rect x="320" y="408" width="310" height="16" rx="8" fill="#ffffff" opacity="0.6" />
  <text x="600" y="120" text-anchor="middle" fill="white" font-family="Inter, sans-serif" font-size="56" font-weight="700">Aurora Theme Preview</text>
  <rect x="760" y="520" width="260" height="120" rx="20" fill="rgba(255,255,255,0.18)" />
  <text x="890" y="590" text-anchor="middle" fill="#ffffff" font-family="Inter, sans-serif" font-size="28" font-weight="600">Live Wallpaper</text>
</svg>
